<svg xmlns="http://www.w3.org/2000/svg" viewBox="0 0 264.06 181.82"><defs><style>.cls-1{fill:#e04446;}.cls-2{fill:#fab53f;}.cls-3{font-size:72px;stroke-width:3px;font-family:BradleyHandITC, Bradley Hand ITC;}.cls-3,.cls-4,.cls-5{stroke:#000;stroke-miterlimit:10;}.cls-4{fill:none;}.cls-6{fill:#b3b3b3;}.cls-7{fill:#979797;}.cls-8{fill:#d80027;}.cls-9{fill:#ffda44;}.cls-10{fill:#c7c7c7;}</style></defs><title>rРесурс 16лого2</title><g id="Слой_2" data-name="Слой 2"><g id="Слой_1-2" data-name="Слой 1"><g id="Fill_out_line" data-name="Fill out line"><path class="cls-1" d="M27.23,116.38a4,4,0,0,1-.48,1.88,5.86,5.86,0,0,1-4.69,3l-.33,0-.84.06h-.66l-.84-.06-.33,0a5.84,5.84,0,0,1-4.69-3,3.92,3.92,0,0,1,0-3.76,5.84,5.84,0,0,1,4.69-3l.33,0,.84-.06h.66l.84.06.33,0a5.86,5.86,0,0,1,4.69,3A4,4,0,0,1,27.23,116.38Z"/><rect class="cls-2" x="19.23" y="110.05" width="2.67" height="1.41"/><rect class="cls-2" x="19.23" y="121.3" width="2.67" height="1.41"/><path d="M27,114.34a6.18,6.18,0,0,0-4.81-3.19v-1.1a.34.34,0,0,0-.34-.34h-1v-5h-.66v5h-1a.34.34,0,0,0-.34.34v1.1a6.17,6.17,0,0,0-4.81,3.19,4.28,4.28,0,0,0,0,4.08,6.17,6.17,0,0,0,4.81,3.19v3.1h.67v-1.66h.67v1.66h.66v-1.66h.67v1.66h.67v-3.1A6.18,6.18,0,0,0,27,118.42a4.28,4.28,0,0,0,0-4.08Zm-7.47-2.52a9.35,9.35,0,0,0-.58,2.65,18.76,18.76,0,0,0,0,3.82,9.35,9.35,0,0,0,.58,2.65,3.84,3.84,0,0,1-2.41-2.79,5.94,5.94,0,0,1,0-3.54A3.84,3.84,0,0,1,19.57,111.82Zm.8,8.73c-.14-.1-.5-.74-.72-2.62a17.25,17.25,0,0,1,0-3.52c.22-1.89.58-2.52.71-2.62h.39c.13.1.5.74.71,2.62a14.72,14.72,0,0,1,.1,1.76,15,15,0,0,1-.1,1.76c-.21,1.88-.58,2.52-.71,2.62Zm1.18.39a9.35,9.35,0,0,0,.58-2.65c.06-.63.1-1.27.1-1.91s0-1.28-.1-1.91a9.35,9.35,0,0,0-.58-2.65,3.83,3.83,0,0,1,2.4,2.79,5.78,5.78,0,0,1,0,3.54,3.83,3.83,0,0,1-2.4,2.79Zm-2-10.56h2v.74h-2Zm-4.9,7.72a3.62,3.62,0,0,1,0-3.44A5.56,5.56,0,0,1,17.92,112a5.91,5.91,0,0,0-1.39,2.38,6.53,6.53,0,0,0,0,4,5.91,5.91,0,0,0,1.39,2.38A5.56,5.56,0,0,1,14.66,118.1Zm4.9,3.54h2v.74h-2Zm6.89-3.54a5.51,5.51,0,0,1-3.25,2.64,5.91,5.91,0,0,0,1.39-2.38,6.68,6.68,0,0,0,0-4A5.91,5.91,0,0,0,23.2,112a5.51,5.51,0,0,1,3.25,2.64,3.56,3.56,0,0,1,0,3.44Z"/></g><text class="cls-3" transform="translate(70.65 151.67)">rip</text><text class="cls-3" transform="translate(1.52 61.59) rotate(0.05)">HAN ZI</text><path class="cls-4" d="M69.56.48a10.13,10.13,0,0,1,3.08,2.23c2.07,2.21,3.1,5.33,5.51,7.17a10.65,10.65,0,0,0,3.79,1.7"/><path class="cls-4" d="M239.56.48a10.13,10.13,0,0,1,3.08,2.23c2.07,2.21,3.1,5.33,5.51,7.17a10.65,10.65,0,0,0,3.79,1.7"/><path class="cls-4" d="M251.56,11.58a9.93,9.93,0,0,0,3.08-2.22c2.07-2.21,3.1-5.33,5.51-7.17A10.67,10.67,0,0,1,263.94.48"/><path class="cls-5" d="M48.48,89.71a45.32,45.32,0,0,1,5.68,14.53,85,85,0,0,1,1.43,11.25c.87,11.61.79,23.31.71,35l10.43.9c.69.06-.51-24.18-.72-26.35a199.85,199.85,0,0,0-3.73-25.16c-1-4.17-2.79-8.24-5.61-9.86"/><path d="M113.1,77.05c.88.06,1.51.58,1.26,1.11A180.4,180.4,0,0,1,92.24,96.28c-1.24.8-3.52.76-3.67,0a24.54,24.54,0,0,1-1.18-7c-26.8,7.43-50.07,21.46-78.67,26-2,.31-2.9-.55-1.85-1.48,4.75-4.28,10.79-8.16,15.72-12.4-5.71-1.61-11.73-3-16.68-5.17-1-.45,0-1.53,1.56-1.82C23.9,91,40.69,89.47,57.27,86.82c7.8-1.19,18.56-4.08,26.86-4.49a22.64,22.64,0,0,1-.43-5.75c0-.89,1.77-1.71,3.4-1.38C94.76,76.92,104,76.81,113.1,77.05Zm-3.83,1.85c-7.52-.14-14.86-.23-21.52-1.27a20.91,20.91,0,0,0,.38,4.65c.18,0,.35,0,.53,0,1.25.16.93,1.18-.58,1.48-12.14,2.19-24.8,4.32-36.86,6C38,91.75,24.85,93.17,11.73,95.64c4.69,1.73,9.84,3.13,14.22,5,.77.41-.31,1.18-1.32,1.29-3.15,3.58-7.7,7.1-11.91,10.55,26.69-5.33,48-18.81,74.25-25.34a2.5,2.5,0,0,1,1.75,0c.84-.17,1.73-.1,1.82.36A33.54,33.54,0,0,0,92,93.21,184.55,184.55,0,0,0,109.27,78.9Z"/><path d="M87.75,77.63c6.66,1,14,1.13,21.52,1.27A184.55,184.55,0,0,1,92,93.21a33.54,33.54,0,0,1-1.45-5.72c-.09-.46-1-.53-1.82-.36a2.5,2.5,0,0,0-1.75,0c-26.28,6.53-47.56,20-74.25,25.34,4.21-3.45,8.76-7,11.91-10.55,1-.11,2.09-.88,1.32-1.29-4.38-1.87-9.53-3.27-14.22-5C24.85,93.17,38,91.75,51.22,89.83c12.06-1.7,24.72-3.83,36.86-6,1.51-.3,1.83-1.32.58-1.48-.18,0-.35,0-.53,0A20.91,20.91,0,0,1,87.75,77.63Z"/><path d="M218,104.53l12.1-5.18a1.52,1.52,0,0,0,.8-2,1.62,1.62,0,0,0-.49-.61l-5-3.73,6.41-10.26h5.82L241.8,91a1.53,1.53,0,0,0,.83.75l10.57,4-2.28,4.57a1.62,1.62,0,0,0-.16.68v5l-13.25,4-2.4-2.4a1.53,1.53,0,0,0-2.15,0l-6.08,6.08a1.52,1.52,0,0,0-.28,1.75l3,6.08a1.54,1.54,0,0,0,.68.68l2.2,1.1v7.6l-12.84,14.26h-3.43l-4.17-2.78a1.53,1.53,0,0,0-1.52-.1l-8,4-3-4,2.11-2.11a1.51,1.51,0,0,0,.14-2L197.25,132a1.52,1.52,0,0,0-1.89-.45l-5.76,2.88h-6.92l-4.33-1.92a1.52,1.52,0,0,0-1.3,2.75l.07,0,4.62,2.05a1.5,1.5,0,0,0,.62.13H190a1.48,1.48,0,0,0,.68-.16l4.94-2.47,3,4L196.48,141a1.53,1.53,0,0,0-.14,2L200.9,149a1.53,1.53,0,0,0,1.9.44l8.33-4.16,3.82,2.55a1.59,1.59,0,0,0,.85.25h4.56a1.52,1.52,0,0,0,1.13-.5l13.68-15.2a1.53,1.53,0,0,0,.39-1v-9.12a1.54,1.54,0,0,0-.84-1.36l-2.59-1.29L229.81,115l4.23-4.24,2,2a1.54,1.54,0,0,0,1.51.38l15.2-4.56a1.52,1.52,0,0,0,1.09-1.46v-5.72l2.88-5.76a1.53,1.53,0,0,0-.68-2l-.15-.06-11.6-4.35L240,80.55a1.54,1.54,0,0,0-1.36-.84H231a1.51,1.51,0,0,0-1.29.72l-7.6,12.16a1.51,1.51,0,0,0,.38,2l4,3-9.68,4.15a1.52,1.52,0,0,0,1.13,2.82l.07,0Z"/><path d="M167.16,125.86v4a1.51,1.51,0,0,0,.9,1.39l3,1.33a1.42,1.42,0,0,0,.61.13,1.52,1.52,0,0,0,.62-2.91l-2.08-.92v-3.58a1.56,1.56,0,0,0-.35-1l-7.25-8.7v-4.43l8.08-2.69a1.53,1.53,0,0,0,1-1.45v-5.86l2.66-9.34h3.17l7.85,2.62V101a1.52,1.52,0,0,0,1.52,1.52h3.75l2.58,3.89a1.52,1.52,0,0,0,1.1.66L208,108.58a1.42,1.42,0,0,0,.76-.11l3.25-1.4a1.52,1.52,0,1,0-1.2-2.79h0L208,105.51l-12.58-1.4-2.65-4a1.51,1.51,0,0,0-1.26-.67h-3V93.39a1.53,1.53,0,0,0-1-1.44l-9.12-3a1.61,1.61,0,0,0-.48-.08h-4.56a1.51,1.51,0,0,0-1.46,1.11l-3,10.64a1.4,1.4,0,0,0-.06.41v5l-8.08,2.69a1.53,1.53,0,0,0-1,1.44v6.08a1.53,1.53,0,0,0,.35,1Z"/><path d="M214.3,152.67a1.52,1.52,0,0,0,0,3h3a1.52,1.52,0,0,0,0-3Z"/><path d="M234,140.51a1.52,1.52,0,1,0,0,3h3a1.52,1.52,0,0,0,0-3Z"/><path d="M211.24,128.35a1.52,1.52,0,0,0,1.52,1.52h1.33a1.52,1.52,0,1,0,0-3h-1.33A1.52,1.52,0,0,0,211.24,128.35Z"/><path d="M220.26,129.87a1.52,1.52,0,1,0,0-3h-1.42a1.52,1.52,0,1,0,0,3Z"/><path class="cls-6" d="M235.31,86a12.26,12.26,0,0,0-10.89-6.75v6.18a6.07,6.07,0,0,1,6.14,6,6.26,6.26,0,0,1-6.14,6.23v12.79c4.32-4.5,9.28-9.44,11.45-15.35A11.57,11.57,0,0,0,235.31,86Z"/><path class="cls-7" d="M213,95.14c2.17,5.91,7.14,10.85,11.45,15.35V97.7a6.26,6.26,0,0,1-6.14-6.23,6.07,6.07,0,0,1,6.14-6V79.24A12.27,12.27,0,0,0,213.54,86,11.57,11.57,0,0,0,213,95.14Z"/><circle class="cls-8" cx="224.43" cy="91.37" r="9.76"/><polygon class="cls-9" points="220 87.55 220.85 90.14 223.58 90.14 221.37 91.75 222.21 94.34 220 92.74 217.8 94.34 218.64 91.75 216.43 90.14 219.16 90.14 220 87.55"/><polygon class="cls-9" points="225.32 96.18 224.49 95.58 223.66 96.18 223.98 95.21 223.15 94.61 224.18 94.61 224.49 93.63 224.81 94.61 225.83 94.61 225 95.21 225.32 96.18"/><polygon class="cls-9" points="227.48 93.21 226.46 93.21 226.14 94.18 225.82 93.21 224.8 93.21 225.63 92.61 225.31 91.63 226.14 92.23 226.97 91.63 226.65 92.61 227.48 93.21"/><polygon class="cls-9" points="227.48 89.53 226.65 90.14 226.97 91.11 226.14 90.51 225.31 91.11 225.63 90.14 224.8 89.53 225.82 89.53 226.14 88.56 226.46 89.53 227.48 89.53"/><polygon class="cls-9" points="225.32 86.56 225 87.53 225.83 88.14 224.81 88.14 224.49 89.11 224.18 88.14 223.15 88.14 223.98 87.53 223.66 86.56 224.49 87.16 225.32 86.56"/><path class="cls-10" d="M224.42,80.56a10.9,10.9,0,1,0,1.68.14,10.48,10.48,0,0,0-1.68-.14m8.71,14.74a9.58,9.58,0,1,1,.55-1.6,8.89,8.89,0,0,1-.55,1.6c-.13.28.09-.21,0,0"/><g id="Fill_out_line-2" data-name="Fill out line"><path class="cls-1" d="M41,111.71a6.82,6.82,0,0,1-.82,3.22,10.06,10.06,0,0,1-8,5.2l-.57,0-1.43.11H29l-1.44-.11-.56,0a10,10,0,0,1-8-5.2,6.75,6.75,0,0,1,0-6.44,10,10,0,0,1,8-5.19l.56,0,1.44-.11h1.14l1.43.11.57,0a10,10,0,0,1,8,5.19A6.85,6.85,0,0,1,41,111.71Z"/><rect class="cls-2" x="27.27" y="100.86" width="4.57" height="2.42"/><rect class="cls-2" x="27.27" y="120.15" width="4.57" height="2.42"/><path d="M40.67,108.22a10.56,10.56,0,0,0-8.25-5.47v-1.89a.58.58,0,0,0-.58-.58H30.13V91.71H29v8.57H27.27a.58.58,0,0,0-.57.58v1.89a10.55,10.55,0,0,0-8.25,5.47,7.29,7.29,0,0,0,0,7,10.55,10.55,0,0,0,8.25,5.47V126h1.14v-2.86H29V126h1.14v-2.86h1.14V126h1.15v-5.32a10.56,10.56,0,0,0,8.25-5.47,7.29,7.29,0,0,0,0-7ZM27.86,103.9a15.84,15.84,0,0,0-1,4.53,32.68,32.68,0,0,0,0,6.56,15.92,15.92,0,0,0,1,4.54c-1.7-.35-3.26-2.15-4.12-4.78a10.17,10.17,0,0,1,0-6.08C24.6,106.05,26.16,104.25,27.86,103.9Zm1.37,15c-.23-.18-.86-1.27-1.22-4.5a27.54,27.54,0,0,1,0-6c.37-3.24,1-4.33,1.22-4.5h.66c.23.18.85,1.27,1.22,4.5a28.39,28.39,0,0,1,0,6c-.37,3.24-1,4.33-1.22,4.5Zm2,.67a15.86,15.86,0,0,0,1-4.54,32.6,32.6,0,0,0,.17-3.28,32.75,32.75,0,0,0-.17-3.28,15.78,15.78,0,0,0-1-4.53c1.71.35,3.27,2.15,4.13,4.77a10.17,10.17,0,0,1,0,6.08c-.86,2.63-2.42,4.43-4.13,4.78Zm-3.41-18.1h3.43v1.27H27.84Zm-8.39,13.23a6.16,6.16,0,0,1,0-5.89A9.42,9.42,0,0,1,25,104.24a10,10,0,0,0-2.38,4.08,11.4,11.4,0,0,0,0,6.79A10.09,10.09,0,0,0,25,119.19,9.46,9.46,0,0,1,19.45,114.66Zm8.39,6.06h3.43V122H27.84Zm11.82-6.06a9.41,9.41,0,0,1-5.57,4.53,10.09,10.09,0,0,0,2.38-4.08,11.4,11.4,0,0,0,0-6.79,10,10,0,0,0-2.38-4.08,9.37,9.37,0,0,1,5.57,4.53,6.1,6.1,0,0,1,0,5.89Z"/></g></g></g></svg>