<svg xmlns="http://www.w3.org/2000/svg" viewBox="0 0 536.69 191.09"><defs><style>.cls-1{fill:#e04446;}.cls-2{fill:#fab53f;}.cls-10,.cls-3{font-size:72px;stroke-width:3px;}.cls-10,.cls-3,.cls-4{stroke:#000;stroke-miterlimit:10;}.cls-3{font-family:BradleyHandITC, Bradley Hand ITC;}.cls-5{fill:#b3b3b3;}.cls-6{fill:#979797;}.cls-7{fill:#d80027;}.cls-8{fill:#ffda44;}.cls-9{fill:#c7c7c7;}.cls-10{font-family:AdobeSongStd-Light-GBpc-EUC-H, Adobe Song Std;}</style></defs><title>rРесурс 16лого2</title><g id="Слой_2" data-name="Слой 2"><g id="Слой_1-2" data-name="Слой 1"><g id="Fill_out_line" data-name="Fill out line"><path class="cls-1" d="M22.07,125.65a3.87,3.87,0,0,1-.48,1.88,5.84,5.84,0,0,1-4.69,3l-.33,0-.83.07h-.67l-.84-.07-.32,0a5.84,5.84,0,0,1-4.69-3,3.92,3.92,0,0,1,0-3.76,5.84,5.84,0,0,1,4.69-3l.32,0,.84-.06h.67l.83.06.33,0a5.84,5.84,0,0,1,4.69,3A3.87,3.87,0,0,1,22.07,125.65Z"/><rect class="cls-2" x="14.07" y="119.32" width="2.67" height="1.41"/><rect class="cls-2" x="14.07" y="130.57" width="2.67" height="1.41"/><path d="M21.88,123.61a6.13,6.13,0,0,0-4.81-3.19v-1.1a.34.34,0,0,0-.33-.34h-1v-5h-.67v5h-1a.34.34,0,0,0-.33.34v1.1a6.16,6.16,0,0,0-4.82,3.19,4.28,4.28,0,0,0,0,4.08,6.19,6.19,0,0,0,4.82,3.19V134h.66v-1.66h.67V134h.67v-1.66h.66V134h.67v-3.1a6.15,6.15,0,0,0,4.81-3.19,4.23,4.23,0,0,0,0-4.08Zm-7.46-2.52a9,9,0,0,0-.58,2.65,18.76,18.76,0,0,0,0,3.82,9,9,0,0,0,.58,2.65A3.82,3.82,0,0,1,12,127.42a6,6,0,0,1,0-3.55A3.82,3.82,0,0,1,14.42,121.09Zm.79,8.73c-.13-.1-.5-.74-.71-2.63a15.84,15.84,0,0,1,0-3.51c.21-1.89.58-2.52.71-2.62h.39c.13.1.5.74.71,2.62a14.71,14.71,0,0,1,.09,1.76,14.65,14.65,0,0,1-.09,1.75c-.22,1.89-.58,2.53-.71,2.63Zm1.18.39a9,9,0,0,0,.58-2.65,17.33,17.33,0,0,0,.1-1.91,17.33,17.33,0,0,0-.1-1.91,9,9,0,0,0-.58-2.65,3.82,3.82,0,0,1,2.41,2.78,6,6,0,0,1,0,3.55,3.82,3.82,0,0,1-2.41,2.79Zm-2-10.56h2v.74h-2Zm-4.89,7.72a3.56,3.56,0,0,1,0-3.44,5.44,5.44,0,0,1,3.25-2.64,5.84,5.84,0,0,0-1.39,2.38,6.68,6.68,0,0,0,0,4A5.91,5.91,0,0,0,12.76,130,5.51,5.51,0,0,1,9.51,127.37Zm4.89,3.54h2v.74h-2Zm6.9-3.54A5.51,5.51,0,0,1,18.05,130a5.9,5.9,0,0,0,1.38-2.38,6.53,6.53,0,0,0,0-4,5.83,5.83,0,0,0-1.38-2.38,5.44,5.44,0,0,1,3.25,2.64,3.62,3.62,0,0,1,0,3.44Z"/></g><text class="cls-3" transform="translate(65.5 160.93)">rip</text><path class="cls-4" d="M43.33,99A45.21,45.21,0,0,1,49,113.51a85,85,0,0,1,1.44,11.25c.86,11.61.78,23.31.7,35l10.44.9c.69.06-.51-24.18-.72-26.35a201.71,201.71,0,0,0-3.74-25.16c-1-4.17-2.78-8.24-5.6-9.86"/><path d="M108,86.31c.87.07,1.5.59,1.25,1.12a179.8,179.8,0,0,1-22.12,18.12c-1.24.8-3.52.76-3.67,0a24.53,24.53,0,0,1-1.17-7C55.43,106,32.16,120,3.57,124.52c-2,.31-2.9-.55-1.86-1.48,4.75-4.28,10.8-8.16,15.73-12.4-5.71-1.61-11.74-3-16.69-5.17-1-.45.05-1.53,1.57-1.82,16.42-3.42,33.22-4.92,49.8-7.57C59.91,94.9,70.68,92,79,91.6a22.24,22.24,0,0,1-.42-5.76c0-.88,1.77-1.7,3.4-1.37C89.61,86.18,98.83,86.08,108,86.31Zm-3.83,1.86C96.6,88,89.25,87.93,82.6,86.9A20.33,20.33,0,0,0,83,91.55c.18,0,.34,0,.53,0,1.25.16.93,1.18-.58,1.48-12.14,2.19-24.8,4.32-36.86,6-13.23,1.92-26.38,3.34-39.5,5.8,4.7,1.74,9.85,3.14,14.22,5,.77.41-.3,1.18-1.32,1.29-3.14,3.58-7.7,7.1-11.91,10.55,26.7-5.33,48-18.81,74.26-25.34a2.57,2.57,0,0,1,1.75,0c.83-.16,1.72-.09,1.81.37a34.5,34.5,0,0,0,1.45,5.72A184.72,184.72,0,0,0,104.12,88.17Z"/><path d="M82.6,86.9c6.65,1,14,1.13,21.52,1.27a184.72,184.72,0,0,1-17.29,14.31,34.5,34.5,0,0,1-1.45-5.72c-.09-.46-1-.53-1.81-.37a2.57,2.57,0,0,0-1.75,0c-26.29,6.53-47.56,20-74.26,25.34,4.21-3.45,8.77-7,11.91-10.55,1-.11,2.09-.88,1.32-1.29-4.37-1.87-9.52-3.27-14.22-5,13.12-2.46,26.27-3.88,39.5-5.8,12.06-1.7,24.72-3.83,36.86-6,1.51-.3,1.83-1.32.58-1.48-.19,0-.35,0-.53,0A20.33,20.33,0,0,1,82.6,86.9Z"/><path d="M212.83,113.8l12.09-5.18a1.53,1.53,0,0,0,.8-2,1.5,1.5,0,0,0-.48-.61l-5-3.73L226.69,92h5.81l4.15,8.28a1.54,1.54,0,0,0,.82.75l10.58,4-2.28,4.57a1.63,1.63,0,0,0-.17.68v4.95l-13.24,4-2.4-2.4a1.51,1.51,0,0,0-2.15,0l-6.08,6.08a1.5,1.5,0,0,0-.28,1.75l3,6.08a1.47,1.47,0,0,0,.67.68l2.2,1.1v7.6l-12.83,14.26H211.1l-4.18-2.78a1.53,1.53,0,0,0-1.52-.1l-8,4-3-4,2.11-2.11a1.53,1.53,0,0,0,.14-2l-4.56-6.08a1.53,1.53,0,0,0-1.9-.45l-5.75,2.88h-6.92l-4.33-1.92a1.52,1.52,0,1,0-1.31,2.74l.08,0,4.62,2.05a1.42,1.42,0,0,0,.61.13h7.6a1.45,1.45,0,0,0,.68-.16l5-2.47,3,4-2.11,2.11a1.51,1.51,0,0,0-.14,2l4.56,6.08a1.51,1.51,0,0,0,1.89.45l8.33-4.17,3.83,2.56a1.56,1.56,0,0,0,.84.25h4.56a1.49,1.49,0,0,0,1.13-.5L230,141.68a1.48,1.48,0,0,0,.39-1v-9.12a1.52,1.52,0,0,0-.84-1.36L227,128.89l-2.33-4.64,4.23-4.24,2,2a1.53,1.53,0,0,0,1.51.38l15.2-4.56a1.52,1.52,0,0,0,1.08-1.46v-5.72l2.88-5.76a1.52,1.52,0,0,0-.67-2l-.15-.06-11.6-4.35-4.3-8.59a1.52,1.52,0,0,0-1.36-.84h-7.6a1.49,1.49,0,0,0-1.28.72L217,101.86a1.52,1.52,0,0,0,.37,2l4,3L211.63,111a1.52,1.52,0,1,0,1.13,2.82l.07,0Z"/><path d="M162,135.13v4a1.52,1.52,0,0,0,.91,1.39l3,1.33a1.5,1.5,0,0,0,.62.13,1.52,1.52,0,0,0,.62-2.91l-2.09-.93v-3.57a1.5,1.5,0,0,0-.35-1l-7.25-8.7v-4.43l8.08-2.7a1.49,1.49,0,0,0,1-1.44v-5.86l2.67-9.34h3.17l7.84,2.62v6.5a1.52,1.52,0,0,0,1.52,1.52h3.75l2.59,3.89a1.51,1.51,0,0,0,1.09.66l13.68,1.52a1.52,1.52,0,0,0,.76-.11l3.26-1.4a1.52,1.52,0,1,0-1.2-2.79h0l-2.88,1.23-12.57-1.4-2.65-4a1.53,1.53,0,0,0-1.27-.67h-3v-6.08a1.51,1.51,0,0,0-1-1.44l-9.12-3a1.51,1.51,0,0,0-.48-.08h-4.56a1.53,1.53,0,0,0-1.46,1.1l-3,10.64a1.52,1.52,0,0,0-.06.42v5l-8.08,2.69a1.53,1.53,0,0,0-1,1.44v6.08a1.54,1.54,0,0,0,.36,1Z"/><path d="M209.15,161.94a1.52,1.52,0,0,0,0,3h3a1.52,1.52,0,0,0,0-3Z"/><path d="M228.88,149.78a1.52,1.52,0,1,0,0,3h3a1.52,1.52,0,1,0,0-3Z"/><path d="M206.08,137.62a1.52,1.52,0,0,0,1.52,1.52h1.33a1.52,1.52,0,0,0,0-3H207.6A1.52,1.52,0,0,0,206.08,137.62Z"/><path d="M215.11,139.14a1.52,1.52,0,0,0,0-3h-1.43a1.52,1.52,0,0,0,0,3Z"/><path class="cls-5" d="M230.16,95.26a12.28,12.28,0,0,0-10.89-6.75v6.18a6.07,6.07,0,0,1,6.14,6,6.26,6.26,0,0,1-6.14,6.23v12.79c4.31-4.5,9.27-9.44,11.44-15.35A11.52,11.52,0,0,0,230.16,95.26Z"/><path class="cls-6" d="M207.83,104.41c2.17,5.91,7.13,10.85,11.44,15.35V107a6.26,6.26,0,0,1-6.14-6.23,6.08,6.08,0,0,1,6.14-6V88.51a12.28,12.28,0,0,0-10.89,6.75A11.52,11.52,0,0,0,207.83,104.41Z"/><circle class="cls-7" cx="219.27" cy="100.64" r="9.76"/><polygon class="cls-8" points="214.85 96.82 215.69 99.41 218.42 99.41 216.22 101.02 217.06 103.61 214.85 102.01 212.64 103.61 213.49 101.02 211.28 99.41 214.01 99.41 214.85 96.82"/><polygon class="cls-8" points="220.16 105.45 219.34 104.85 218.51 105.45 218.82 104.48 218 103.87 219.02 103.87 219.34 102.9 219.65 103.87 220.68 103.87 219.85 104.48 220.16 105.45"/><polygon class="cls-8" points="222.32 102.48 221.3 102.48 220.98 103.45 220.67 102.48 219.65 102.48 220.47 101.88 220.16 100.9 220.98 101.5 221.81 100.9 221.5 101.88 222.32 102.48"/><polygon class="cls-8" points="222.32 98.8 221.5 99.41 221.81 100.38 220.98 99.78 220.16 100.38 220.47 99.41 219.65 98.8 220.67 98.8 220.98 97.83 221.3 98.8 222.32 98.8"/><polygon class="cls-8" points="220.16 95.83 219.85 96.81 220.68 97.41 219.65 97.41 219.34 98.38 219.02 97.41 218 97.41 218.82 96.81 218.51 95.83 219.34 96.43 220.16 95.83"/><path class="cls-9" d="M219.27,89.83A10.8,10.8,0,1,0,221,90a11.88,11.88,0,0,0-1.68-.13m8.7,14.74a9.52,9.52,0,1,1,.56-1.6,9.78,9.78,0,0,1-.56,1.6c-.12.28.1-.21,0,0"/><g id="Fill_out_line-2" data-name="Fill out line"><path class="cls-1" d="M35.83,121A6.7,6.7,0,0,1,35,124.2a10,10,0,0,1-8,5.2l-.56,0-1.43.11H23.83l-1.43-.11-.57,0a10,10,0,0,1-8-5.2,6.7,6.7,0,0,1,0-6.44,10,10,0,0,1,8-5.2l.57,0,1.43-.11H25l1.43.11.56,0a10,10,0,0,1,8,5.2A6.73,6.73,0,0,1,35.83,121Z"/><rect class="cls-2" x="22.12" y="110.13" width="4.57" height="2.42"/><rect class="cls-2" x="22.12" y="129.42" width="4.57" height="2.42"/><path d="M35.51,117.49A10.55,10.55,0,0,0,27.26,112v-1.89a.57.57,0,0,0-.57-.58H25V101H23.83v8.57H22.12a.57.57,0,0,0-.57.58V112a10.58,10.58,0,0,0-8.26,5.47,7.34,7.34,0,0,0,0,7A10.58,10.58,0,0,0,21.55,130v5.32h1.14v-2.86h1.14v2.86H25v-2.86h1.14v2.86h1.14V130a10.55,10.55,0,0,0,8.25-5.47,7.29,7.29,0,0,0,0-7Zm-12.8-4.32a15.78,15.78,0,0,0-1,4.53,32.68,32.68,0,0,0,0,6.56,15.69,15.69,0,0,0,1,4.53c-1.7-.34-3.27-2.14-4.13-4.77a10.17,10.17,0,0,1,0-6.08C19.44,115.32,21,113.52,22.71,113.17Zm1.36,15c-.22-.18-.85-1.27-1.22-4.5a28.84,28.84,0,0,1,0-6c.37-3.24,1-4.33,1.22-4.5h.67c.22.18.85,1.27,1.22,4.5a27.46,27.46,0,0,1,.16,3,27.46,27.46,0,0,1-.16,3c-.37,3.24-1,4.33-1.22,4.5Zm2,.66a15.42,15.42,0,0,0,1-4.53,29.9,29.9,0,0,0,.17-3.28,30,30,0,0,0-.17-3.28,15.5,15.5,0,0,0-1-4.53c1.7.35,3.27,2.15,4.13,4.77a10.33,10.33,0,0,1,0,6.08c-.86,2.63-2.43,4.43-4.13,4.77ZM22.69,110.7h3.43V112H22.69ZM14.3,123.93a6.16,6.16,0,0,1,0-5.89,9.39,9.39,0,0,1,5.58-4.53,9.91,9.91,0,0,0-2.38,4.08,11.24,11.24,0,0,0,0,6.79,10,10,0,0,0,2.38,4.08A9.43,9.43,0,0,1,14.3,123.93ZM22.69,130h3.43v1.28H22.69Zm11.82-6.06a9.43,9.43,0,0,1-5.58,4.53,10,10,0,0,0,2.38-4.08,11.24,11.24,0,0,0,0-6.79,9.91,9.91,0,0,0-2.38-4.08A9.39,9.39,0,0,1,34.51,118a6.16,6.16,0,0,1,0,5.89Z"/></g><text class="cls-10" transform="translate(1.5 65.93)">汉</text><text class="cls-10" transform="translate(83.37 64.86) rotate(0.05)">字</text><g id="Fill_out_line-3" data-name="Fill out line"><path class="cls-1" d="M307.07,125.65a3.87,3.87,0,0,1-.48,1.88,5.84,5.84,0,0,1-4.69,3l-.33,0-.83.07h-.67l-.84-.07-.32,0a5.84,5.84,0,0,1-4.69-3,3.92,3.92,0,0,1,0-3.76,5.84,5.84,0,0,1,4.69-3l.32,0,.84-.06h.67l.83.06.33,0a5.84,5.84,0,0,1,4.69,3A3.87,3.87,0,0,1,307.07,125.65Z"/><rect class="cls-2" x="299.07" y="119.32" width="2.67" height="1.41"/><rect class="cls-2" x="299.07" y="130.57" width="2.67" height="1.41"/><path d="M306.88,123.61a6.13,6.13,0,0,0-4.81-3.19v-1.1a.34.34,0,0,0-.33-.34h-1v-5h-.67v5h-1a.34.34,0,0,0-.33.34v1.1a6.16,6.16,0,0,0-4.82,3.19,4.28,4.28,0,0,0,0,4.08,6.19,6.19,0,0,0,4.82,3.19V134h.66v-1.66h.67V134h.67v-1.66h.66V134h.67v-3.1a6.15,6.15,0,0,0,4.81-3.19,4.23,4.23,0,0,0,0-4.08Zm-7.46-2.52a9,9,0,0,0-.58,2.65,18.76,18.76,0,0,0,0,3.82,9,9,0,0,0,.58,2.65,3.82,3.82,0,0,1-2.41-2.79,6,6,0,0,1,0-3.55A3.82,3.82,0,0,1,299.42,121.09Zm.79,8.73c-.13-.1-.5-.74-.71-2.63a15.84,15.84,0,0,1,0-3.51c.21-1.89.58-2.52.71-2.62h.39c.13.1.5.74.71,2.62a17.16,17.16,0,0,1,0,3.51c-.22,1.89-.58,2.53-.71,2.63Zm1.18.39a9,9,0,0,0,.58-2.65,18.29,18.29,0,0,0,0-3.82,9,9,0,0,0-.58-2.65,3.82,3.82,0,0,1,2.41,2.78,6,6,0,0,1,0,3.55,3.82,3.82,0,0,1-2.41,2.79Zm-2-10.56h2v.74h-2Zm-4.89,7.72a3.56,3.56,0,0,1,0-3.44,5.44,5.44,0,0,1,3.25-2.64,5.84,5.84,0,0,0-1.39,2.38,6.68,6.68,0,0,0,0,4,5.91,5.91,0,0,0,1.39,2.38A5.51,5.51,0,0,1,294.51,127.37Zm4.89,3.54h2v.74h-2Zm6.9-3.54a5.51,5.51,0,0,1-3.25,2.64,5.9,5.9,0,0,0,1.38-2.38,6.53,6.53,0,0,0,0-4,5.83,5.83,0,0,0-1.38-2.38,5.44,5.44,0,0,1,3.25,2.64,3.62,3.62,0,0,1,0,3.44Z"/></g><text class="cls-3" transform="translate(350.5 160.93)">rip</text><path class="cls-4" d="M328.33,99A45.21,45.21,0,0,1,334,113.51a85,85,0,0,1,1.44,11.25c.86,11.61.78,23.31.7,35l10.44.9c.69.06-.51-24.18-.72-26.35a201.71,201.71,0,0,0-3.74-25.16c-1-4.17-2.78-8.24-5.6-9.86"/><path d="M393,86.31c.87.07,1.5.59,1.25,1.12a179.8,179.8,0,0,1-22.12,18.12c-1.24.8-3.52.76-3.67,0a24.53,24.53,0,0,1-1.17-7c-26.81,7.43-50.08,21.45-78.67,26-2,.31-2.9-.55-1.86-1.48,4.75-4.28,10.8-8.16,15.73-12.4-5.71-1.61-11.74-3-16.69-5.17-1-.45.05-1.53,1.57-1.82,16.42-3.42,33.22-4.92,49.8-7.57C344.91,94.9,355.68,92,364,91.6a22.24,22.24,0,0,1-.42-5.76c0-.88,1.77-1.7,3.4-1.37C374.61,86.18,383.83,86.08,393,86.31Zm-3.83,1.86c-7.52-.14-14.87-.24-21.52-1.27a20.33,20.33,0,0,0,.38,4.65c.18,0,.34,0,.53,0,1.25.16.93,1.18-.58,1.48-12.14,2.19-24.8,4.32-36.86,6-13.23,1.92-26.38,3.34-39.5,5.8,4.7,1.74,9.85,3.14,14.22,5,.77.41-.3,1.18-1.32,1.29-3.14,3.58-7.7,7.1-11.91,10.55,26.7-5.33,48-18.81,74.26-25.34a2.57,2.57,0,0,1,1.75,0c.83-.16,1.72-.09,1.81.37a34.5,34.5,0,0,0,1.45,5.72A184.72,184.72,0,0,0,389.12,88.17Z"/><path d="M367.6,86.9c6.65,1,14,1.13,21.52,1.27a184.72,184.72,0,0,1-17.29,14.31,34.5,34.5,0,0,1-1.45-5.72c-.09-.46-1-.53-1.81-.37a2.57,2.57,0,0,0-1.75,0c-26.29,6.53-47.56,20-74.26,25.34,4.21-3.45,8.77-7,11.91-10.55,1-.11,2.09-.88,1.32-1.29-4.37-1.87-9.52-3.27-14.22-5,13.12-2.46,26.27-3.88,39.5-5.8,12.06-1.7,24.72-3.83,36.86-6,1.51-.3,1.83-1.32.58-1.48-.19,0-.35,0-.53,0A20.33,20.33,0,0,1,367.6,86.9Z"/><path d="M497.83,113.8l12.09-5.18a1.53,1.53,0,0,0,.8-2,1.5,1.5,0,0,0-.48-.61l-5-3.73L511.69,92h5.81l4.15,8.28a1.54,1.54,0,0,0,.82.75l10.58,4-2.28,4.57a1.63,1.63,0,0,0-.17.68v4.95l-13.24,4-2.4-2.4a1.51,1.51,0,0,0-2.15,0l-6.08,6.08a1.5,1.5,0,0,0-.28,1.75l3,6.08a1.47,1.47,0,0,0,.67.68l2.2,1.1v7.6l-12.83,14.26H496.1l-4.18-2.78a1.53,1.53,0,0,0-1.52-.1l-8,4-3-4,2.11-2.11a1.53,1.53,0,0,0,.14-2l-4.56-6.08a1.53,1.53,0,0,0-1.9-.45l-5.75,2.88h-6.92l-4.33-1.92a1.52,1.52,0,1,0-1.31,2.74l.08,0,4.62,2.05a1.42,1.42,0,0,0,.61.13h7.6a1.45,1.45,0,0,0,.68-.16l4.95-2.47,3,4-2.11,2.11a1.51,1.51,0,0,0-.14,2l4.56,6.08a1.51,1.51,0,0,0,1.89.45l8.33-4.17,3.83,2.56a1.56,1.56,0,0,0,.84.25h4.56a1.49,1.49,0,0,0,1.13-.5L515,141.68a1.48,1.48,0,0,0,.39-1v-9.12a1.52,1.52,0,0,0-.84-1.36L512,128.89l-2.33-4.64,4.23-4.24,2,2a1.53,1.53,0,0,0,1.51.38l15.2-4.56a1.52,1.52,0,0,0,1.08-1.46v-5.72l2.88-5.76a1.52,1.52,0,0,0-.67-2l-.15-.06-11.6-4.35-4.3-8.59a1.52,1.52,0,0,0-1.36-.84h-7.6a1.49,1.49,0,0,0-1.28.72L502,101.86a1.52,1.52,0,0,0,.37,2l4,3L496.63,111a1.52,1.52,0,1,0,1.13,2.82l.07,0Z"/><path d="M447,135.13v4a1.52,1.52,0,0,0,.91,1.39l3,1.33a1.5,1.5,0,0,0,.62.13,1.52,1.52,0,0,0,.62-2.91l-2.09-.93v-3.57a1.5,1.5,0,0,0-.35-1l-7.25-8.7v-4.43l8.08-2.7a1.49,1.49,0,0,0,1-1.44v-5.86l2.67-9.34h3.17l7.84,2.62v6.5a1.52,1.52,0,0,0,1.52,1.52h3.75l2.59,3.89a1.51,1.51,0,0,0,1.09.66l13.68,1.52a1.52,1.52,0,0,0,.76-.11l3.26-1.4a1.52,1.52,0,1,0-1.2-2.79h0l-2.88,1.23-12.57-1.4-2.65-4a1.53,1.53,0,0,0-1.27-.67h-3v-6.08a1.51,1.51,0,0,0-1-1.44l-9.12-3a1.51,1.51,0,0,0-.48-.08h-4.56a1.53,1.53,0,0,0-1.46,1.1l-3,10.64a1.52,1.52,0,0,0-.06.42v5l-8.08,2.69a1.53,1.53,0,0,0-1,1.44v6.08a1.54,1.54,0,0,0,.36,1Z"/><path d="M494.15,161.94a1.52,1.52,0,1,0,0,3h3a1.52,1.52,0,0,0,0-3Z"/><path d="M513.88,149.78a1.52,1.52,0,1,0,0,3h3a1.52,1.52,0,1,0,0-3Z"/><path d="M491.08,137.62a1.52,1.52,0,0,0,1.52,1.52h1.33a1.52,1.52,0,0,0,0-3H492.6A1.52,1.52,0,0,0,491.08,137.62Z"/><path d="M500.11,139.14a1.52,1.52,0,0,0,0-3h-1.43a1.52,1.52,0,1,0,0,3Z"/><path class="cls-5" d="M515.16,95.26a12.28,12.28,0,0,0-10.89-6.75v6.18a6.07,6.07,0,0,1,6.14,6,6.26,6.26,0,0,1-6.14,6.23v12.79c4.31-4.5,9.27-9.44,11.44-15.35A11.52,11.52,0,0,0,515.16,95.26Z"/><path class="cls-6" d="M492.83,104.41c2.17,5.91,7.13,10.85,11.44,15.35V107a6.26,6.26,0,0,1-6.14-6.23,6.08,6.08,0,0,1,6.14-6V88.51a12.28,12.28,0,0,0-10.89,6.75A11.52,11.52,0,0,0,492.83,104.41Z"/><circle class="cls-7" cx="504.27" cy="100.64" r="9.76"/><polygon class="cls-8" points="499.85 96.82 500.69 99.41 503.42 99.41 501.21 101.02 502.06 103.61 499.85 102.01 497.64 103.61 498.49 101.02 496.28 99.41 499.01 99.41 499.85 96.82"/><polygon class="cls-8" points="505.16 105.45 504.34 104.85 503.51 105.45 503.82 104.48 503 103.87 504.02 103.87 504.34 102.9 504.65 103.87 505.68 103.87 504.85 104.48 505.16 105.45"/><polygon class="cls-8" points="507.32 102.48 506.3 102.48 505.98 103.45 505.67 102.48 504.64 102.48 505.47 101.88 505.16 100.9 505.98 101.5 506.81 100.9 506.5 101.88 507.32 102.48"/><polygon class="cls-8" points="507.32 98.8 506.5 99.41 506.81 100.38 505.98 99.78 505.16 100.38 505.47 99.41 504.64 98.8 505.67 98.8 505.98 97.83 506.3 98.8 507.32 98.8"/><polygon class="cls-8" points="505.16 95.83 504.85 96.81 505.68 97.41 504.65 97.41 504.34 98.38 504.02 97.41 503 97.41 503.82 96.81 503.51 95.83 504.34 96.43 505.16 95.83"/><path class="cls-9" d="M504.27,89.83A10.8,10.8,0,1,0,506,90a11.88,11.88,0,0,0-1.68-.13m8.7,14.74a9.52,9.52,0,1,1,.56-1.6,9.78,9.78,0,0,1-.56,1.6c-.12.28.1-.21,0,0"/><g id="Fill_out_line-4" data-name="Fill out line"><path class="cls-1" d="M320.83,121a6.7,6.7,0,0,1-.82,3.22,10,10,0,0,1-8,5.2l-.56,0-1.43.11h-1.15l-1.43-.11-.57,0a10,10,0,0,1-8-5.2,6.7,6.7,0,0,1,0-6.44,10,10,0,0,1,8-5.2l.57,0,1.43-.11H310l1.43.11.56,0a10,10,0,0,1,8,5.2A6.73,6.73,0,0,1,320.83,121Z"/><rect class="cls-2" x="307.12" y="110.13" width="4.57" height="2.42"/><rect class="cls-2" x="307.12" y="129.42" width="4.57" height="2.42"/><path d="M320.51,117.49a10.55,10.55,0,0,0-8.25-5.47v-1.89a.57.57,0,0,0-.57-.58H310V101h-1.15v8.57h-1.71a.57.57,0,0,0-.57.58V112a10.58,10.58,0,0,0-8.26,5.47,7.34,7.34,0,0,0,0,7,10.58,10.58,0,0,0,8.26,5.47v5.32h1.14v-2.86h1.14v2.86H310v-2.86h1.14v2.86h1.14V130a10.55,10.55,0,0,0,8.25-5.47,7.29,7.29,0,0,0,0-7Zm-12.8-4.32a15.78,15.78,0,0,0-1,4.53,32.68,32.68,0,0,0,0,6.56,15.69,15.69,0,0,0,1,4.53c-1.7-.34-3.27-2.14-4.13-4.77a10.17,10.17,0,0,1,0-6.08C304.44,115.32,306,113.52,307.71,113.17Zm1.36,15c-.22-.18-.85-1.27-1.22-4.5a28.84,28.84,0,0,1,0-6c.37-3.24,1-4.33,1.22-4.5h.67c.22.18.85,1.27,1.22,4.5a28.39,28.39,0,0,1,0,6c-.37,3.24-1,4.33-1.22,4.5Zm2,.66a15.42,15.42,0,0,0,1-4.53,31.73,31.73,0,0,0,0-6.56,15.5,15.5,0,0,0-1-4.53c1.7.35,3.27,2.15,4.13,4.77a10.33,10.33,0,0,1,0,6.08c-.86,2.63-2.43,4.43-4.13,4.77Zm-3.41-18.09h3.43V112h-3.43Zm-8.39,13.23a6.16,6.16,0,0,1,0-5.89,9.39,9.39,0,0,1,5.58-4.53,9.91,9.91,0,0,0-2.38,4.08,11.24,11.24,0,0,0,0,6.79,10,10,0,0,0,2.38,4.08A9.43,9.43,0,0,1,299.3,123.93Zm8.39,6.06h3.43v1.28h-3.43Zm11.82-6.06a9.43,9.43,0,0,1-5.58,4.53,10,10,0,0,0,2.38-4.08,11.24,11.24,0,0,0,0-6.79,9.91,9.91,0,0,0-2.38-4.08,9.39,9.39,0,0,1,5.58,4.53,6.16,6.16,0,0,1,0,5.89Z"/></g><text class="cls-10" transform="translate(336.5 65.93)">汉</text><text class="cls-10" transform="translate(418.37 64.86) rotate(0.05)">字</text></g></g></svg>