<svg xmlns="http://www.w3.org/2000/svg" viewBox="0 0 108.88 76.75"><defs><style>.cls-1{fill:#e04446;}.cls-2{fill:#fab53f;}.cls-3{stroke:#000;stroke-miterlimit:10;}</style></defs><title>rРесурс 18лого2</title><g id="Слой_2" data-name="Слой 2"><g id="Слой_1-2" data-name="Слой 1"><g id="Fill_out_line" data-name="Fill out line"><path class="cls-1" d="M22,41.5a4,4,0,0,1-.48,1.88,5.84,5.84,0,0,1-4.69,3l-.33,0-.84.06H15l-.84-.06-.33,0a5.86,5.86,0,0,1-4.69-3,3.9,3.9,0,0,1,0-3.75,5.89,5.89,0,0,1,4.69-3l.33,0L15,36.5h.66l.84.07.33,0a5.85,5.85,0,0,1,4.69,3A3.94,3.94,0,0,1,22,41.5Z" transform="translate(-0.25 -0.25)"/><rect class="cls-2" x="13.7" y="34.92" width="2.67" height="1.41"/><rect class="cls-2" x="13.7" y="46.18" width="2.67" height="1.41"/><path d="M21.76,39.47A6.16,6.16,0,0,0,17,36.27v-1.1a.34.34,0,0,0-.34-.33h-1v-5H15v5H14a.34.34,0,0,0-.34.33v1.1a6.17,6.17,0,0,0-4.81,3.2,4.26,4.26,0,0,0,0,4.07,6.16,6.16,0,0,0,4.81,3.19v3.11h.67V48.17H15v1.67h.66V48.17h.67v1.67H17V46.73a6.15,6.15,0,0,0,4.81-3.19,4.26,4.26,0,0,0,0-4.07ZM14.29,37a9.18,9.18,0,0,0-.58,2.64,18.85,18.85,0,0,0,0,3.83,9.35,9.35,0,0,0,.58,2.64c-1-.2-1.9-1.25-2.41-2.78a6,6,0,0,1,0-3.55C12.39,38.2,13.3,37.15,14.29,37Zm.8,8.72c-.14-.1-.5-.74-.72-2.62a17.25,17.25,0,0,1,0-3.52c.22-1.88.59-2.52.72-2.62h.38c.14.1.5.74.72,2.62a17.29,17.29,0,0,1,.09,1.76,17.29,17.29,0,0,1-.09,1.76c-.22,1.89-.59,2.52-.72,2.62Zm1.18.39a9.35,9.35,0,0,0,.58-2.64A17.64,17.64,0,0,0,17,41.5a17.33,17.33,0,0,0-.1-1.91A9.18,9.18,0,0,0,16.27,37a3.81,3.81,0,0,1,2.41,2.78,6,6,0,0,1,0,3.55,3.81,3.81,0,0,1-2.41,2.78Zm-2-10.56h2v.75h-2ZM9.39,43.22a3.56,3.56,0,0,1,0-3.44,5.51,5.51,0,0,1,3.25-2.64,5.91,5.91,0,0,0-1.39,2.38,6.68,6.68,0,0,0,0,4,5.84,5.84,0,0,0,1.39,2.38A5.44,5.44,0,0,1,9.39,43.22Zm4.89,3.54h2v.74h-2Zm6.9-3.54a5.49,5.49,0,0,1-3.26,2.64,5.84,5.84,0,0,0,1.39-2.38,6.53,6.53,0,0,0,0-4,5.91,5.91,0,0,0-1.39-2.38,5.56,5.56,0,0,1,3.26,2.64,3.62,3.62,0,0,1,0,3.44Z" transform="translate(-0.25 -0.25)"/></g><path class="cls-3" d="M43.21,14.84a45.39,45.39,0,0,1,5.67,14.52,87.13,87.13,0,0,1,1.44,11.25c.86,11.61.78,23.32.7,35l10.43.9c.7.06-.51-24.18-.72-26.34A200,200,0,0,0,57,25c-1-4.16-2.78-8.24-5.61-9.86" transform="translate(-0.25 -0.25)"/><path d="M107.82,2.17c.88.07,1.51.58,1.26,1.11A180.4,180.4,0,0,1,87,21.4c-1.24.8-3.52.76-3.67,0a24.84,24.84,0,0,1-1.18-7C55.31,21.86,32,35.88,3.44,40.37c-2,.32-2.9-.55-1.85-1.47,4.75-4.28,10.79-8.17,15.73-12.41-5.71-1.61-11.74-3-16.69-5.17-1-.45.05-1.52,1.56-1.82,16.43-3.42,33.22-4.91,49.8-7.56,7.8-1.19,18.57-4.08,26.86-4.48a22.28,22.28,0,0,1-.42-5.76c0-.88,1.77-1.7,3.4-1.38C89.48,2,98.7,1.94,107.82,2.17ZM104,4c-7.53-.14-14.87-.24-21.53-1.27a20.87,20.87,0,0,0,.38,4.64c.18,0,.35,0,.53.06,1.26.16.93,1.18-.58,1.47C70.67,11.12,58,13.26,45.94,15,32.72,16.87,19.57,18.3,6.45,20.76c4.69,1.73,9.84,3.13,14.22,5,.77.4-.3,1.17-1.32,1.29-3.15,3.57-7.7,7.09-11.91,10.54,26.69-5.33,48-18.81,74.26-25.34a2.47,2.47,0,0,1,1.74,0c.84-.16,1.73-.1,1.82.37a33.43,33.43,0,0,0,1.45,5.71A184.66,184.66,0,0,0,104,4Z" transform="translate(-0.25 -0.25)"/><path d="M82.47,2.76c6.66,1,14,1.13,21.53,1.27a184.66,184.66,0,0,1-17.29,14.3,33.43,33.43,0,0,1-1.45-5.71c-.09-.47-1-.53-1.82-.37a2.47,2.47,0,0,0-1.74,0c-26.29,6.53-47.57,20-74.26,25.34,4.21-3.45,8.76-7,11.91-10.54,1-.12,2.09-.89,1.32-1.29-4.38-1.88-9.53-3.28-14.22-5C19.57,18.3,32.72,16.87,45.94,15c12.06-1.69,24.73-3.83,36.86-6,1.51-.29,1.84-1.31.58-1.47-.18,0-.35,0-.53-.06A20.87,20.87,0,0,1,82.47,2.76Z" transform="translate(-0.25 -0.25)"/><g id="Fill_out_line-2" data-name="Fill out line"><path class="cls-1" d="M35.71,36.84a6.73,6.73,0,0,1-.82,3.22,10,10,0,0,1-8,5.19l-.56,0-1.44.11H23.71l-1.43-.11-.57,0a10,10,0,0,1-8-5.19,6.75,6.75,0,0,1,0-6.44,10,10,0,0,1,8-5.2l.57-.05,1.43-.11h1.14l1.44.11.56.05a10,10,0,0,1,8,5.2A6.67,6.67,0,0,1,35.71,36.84Z" transform="translate(-0.25 -0.25)"/><rect class="cls-2" x="21.74" y="25.73" width="4.57" height="2.42"/><rect class="cls-2" x="21.74" y="45.03" width="4.57" height="2.42"/><path d="M35.39,33.34a10.55,10.55,0,0,0-8.25-5.47V26a.57.57,0,0,0-.57-.57H24.85V16.84H23.71v8.57H22a.57.57,0,0,0-.58.57v1.89a10.56,10.56,0,0,0-8.25,5.47,7.29,7.29,0,0,0,0,7,10.56,10.56,0,0,0,8.25,5.47v5.32h1.15V48.26h1.14v2.86h1.14V48.26H26v2.86h1.14V45.8a10.55,10.55,0,0,0,8.25-5.47,7.29,7.29,0,0,0,0-7ZM22.59,29a15.86,15.86,0,0,0-1,4.54,32.68,32.68,0,0,0,0,6.56,15.78,15.78,0,0,0,1,4.53c-1.71-.35-3.27-2.15-4.13-4.77a10.2,10.2,0,0,1,0-6.09C19.32,31.17,20.88,29.37,22.59,29ZM24,44c-.23-.17-.85-1.27-1.22-4.49a27.63,27.63,0,0,1,0-6c.37-3.24,1-4.33,1.22-4.49h.66c.23.17.86,1.26,1.22,4.49a27.61,27.61,0,0,1,.17,3,27.79,27.79,0,0,1-.17,3c-.37,3.23-1,4.32-1.22,4.49Zm2,.67a15.84,15.84,0,0,0,1-4.53,32.75,32.75,0,0,0,.17-3.28A32.6,32.6,0,0,0,27,33.56,15.92,15.92,0,0,0,26,29c1.7.35,3.26,2.15,4.12,4.77a10.2,10.2,0,0,1,0,6.09c-.86,2.62-2.42,4.42-4.12,4.77Zm-3.41-18.1H26v1.28H22.57Zm-8.4,13.23a6.16,6.16,0,0,1,0-5.89,9.42,9.42,0,0,1,5.58-4.53,10.09,10.09,0,0,0-2.38,4.08,11.4,11.4,0,0,0,0,6.79,10,10,0,0,0,2.38,4.08A9.42,9.42,0,0,1,14.17,39.78Zm8.4,6.07H26v1.27H22.57Zm11.82-6.07a9.42,9.42,0,0,1-5.58,4.53,10,10,0,0,0,2.38-4.08,11.4,11.4,0,0,0,0-6.79,10.09,10.09,0,0,0-2.38-4.08,9.42,9.42,0,0,1,5.58,4.53,6.16,6.16,0,0,1,0,5.89Z" transform="translate(-0.25 -0.25)"/></g></g></g></svg>